<?xml version="1.0" encoding="UTF-8"?><svg id="Layer_2" xmlns="http://www.w3.org/2000/svg" viewBox="0 0 182.23 182.23"><defs><style>.cls-1{fill:#fff;}.cls-2{fill:#272525;}</style></defs><g id="Layer_1-2"><circle class="cls-2" cx="91.12" cy="91.12" r="91.12"/><polygon class="cls-1" points="43.1 68.58 34.34 68.58 34.34 113.04 64 113.04 64 104.58 43.1 104.58 43.1 68.58"/><polygon class="cls-1" points="77.13 93.64 66.96 68.58 56.45 68.58 76.75 115.09 97.04 68.58 86.65 68.58 77.13 93.64"/><rect class="cls-1" x="100.97" y="68.58" width="8.76" height="44.46"/><path class="cls-1" d="M126.64,77.28c1.09-.76,2.58-1.15,4.47-1.15,1.53,0,3.17.3,4.92.91,1.75.6,3.47,1.37,5.16,2.3l3.32-6.71c-1.77-1.17-3.78-2.17-6.01-3.02-2.24-.85-5.15-1.27-8.73-1.27-2.74.12-5.16.74-7.25,1.84-2.09,1.11-3.72,2.61-4.86,4.5-1.15,1.89-1.72,4.13-1.72,6.71,0,2.13.39,3.94,1.18,5.41.79,1.47,1.81,2.7,3.08,3.68,1.27.99,2.63,1.82,4.08,2.51,1.45.69,2.86,1.29,4.23,1.81,1.17.44,2.24.97,3.23,1.57.99.6,1.77,1.27,2.36,1.99.58.72.88,1.53.88,2.42,0,1.29-.35,2.3-1.06,3.02-.7.72-1.59,1.24-2.66,1.54-1.07.3-2.12.45-3.17.45s-2.2-.16-3.44-.48c-1.25-.32-2.49-.77-3.71-1.36-1.23-.58-2.37-1.26-3.41-2.02l-3.87,6.83c1.57,1.09,3.2,1.98,4.89,2.69,1.69.7,3.41,1.23,5.16,1.57s3.47.51,5.17.51c3.3,0,6.08-.59,8.34-1.78,2.25-1.19,3.97-2.75,5.13-4.68,1.17-1.93,1.75-4.03,1.75-6.28,0-2.13-.3-3.94-.91-5.41-.6-1.47-1.41-2.7-2.42-3.68-1.01-.99-2.14-1.81-3.41-2.48-1.27-.66-2.55-1.24-3.84-1.72-1.41-.52-2.77-1.11-4.08-1.75-1.31-.64-2.38-1.38-3.2-2.2-.83-.83-1.24-1.76-1.24-2.81,0-1.53.54-2.68,1.63-3.44Z"/><polygon class="cls-1" points="147.85 68.01 149.64 68.01 149.64 73.03 150.32 73.03 150.32 68.01 152.12 68.01 152.12 67.39 147.85 67.39 147.85 68.01"/><polygon class="cls-1" points="157.06 67.39 155.11 70.27 153.16 67.39 152.45 67.39 152.45 73.03 153.14 73.03 153.14 68.5 155.11 71.43 157.09 68.49 157.09 73.03 157.76 73.03 157.76 67.39 157.06 67.39"/></g></svg>